<svg viewBox="0 0 620 160" role="img" aria-label="EterSolis" xmlns="http://www.w3.org/2000/svg">
  <title>EterSolis</title>
  <g transform="translate(0 -62) scale(0.58)">
    <path d="M69 5 C41 14 28 43 35 72 C41 100 66 121 83 144 C112 184 111 223 91 246 C77 263 57 270 40 264 C57 275 84 276 103 259 C134 232 130 183 100 142 C78 112 50 91 44 64 C39 42 48 19 69 5 Z" fill="#FCCF25"/>
    <circle cx="73" cy="208" r="25" fill="none" stroke="#FCCF25" stroke-width="10"/>
    <path d="M73 163 L80 194 L112 181 L91 205 L124 210 L91 216 L112 240 L80 226 L73 258 L66 226 L34 240 L56 216 L22 210 L56 205 L34 181 L66 194 Z" fill="#FCCF25"/>
    <circle cx="123" cy="30" r="11" fill="#565656"/><circle cx="126" cy="58" r="10" fill="#565656"/><circle cx="116" cy="86" r="9" fill="#565656"/><circle cx="101" cy="112" r="8" fill="#565656"/><circle cx="85" cy="137" r="8" fill="#565656"/><circle cx="67" cy="162" r="9" fill="#565656"/><circle cx="53" cy="188" r="10" fill="#565656"/><circle cx="51" cy="221" r="10" fill="#565656"/><circle cx="61" cy="251" r="11" fill="#565656"/>
  </g>
  <text x="170" y="105" font-family="Aptos, Inter, Arial, sans-serif" font-size="80" font-weight="900" letter-spacing="6" fill="#565656">ETER</text>
  <text x="392" y="105" font-family="Aptos, Inter, Arial, sans-serif" font-size="80" font-weight="900" letter-spacing="6" fill="#FCCF25">SOLIS</text>
</svg>
